<svg width="285" height="42" viewBox="0 0 285 42" fill="none" xmlns="http://www.w3.org/2000/svg">
<path d="M57.9512 8.18636H66.3099L75.1307 27.5237H75.7432V8.18636H80.5352V32.9861H72.1765L63.3206 13.6486H62.7466V32.9861H57.9512V8.18636ZM85.2082 20.5862C85.2082 12.8739 90.3082 7.60263 97.7499 7.60263C104.344 7.60263 108.79 11.4022 109.136 17.2537H104.236C103.469 13.6876 101.397 12.138 99.0204 12.138H96.2587C92.9229 12.138 90.1647 15.8598 90.1647 20.5862C90.1647 25.3126 92.9159 29.0343 96.2587 29.0343H99.0204C101.397 29.0343 103.546 27.4848 104.313 23.9187H109.213C108.863 29.6145 104.344 33.5698 97.5957 33.5698C90.5007 33.5698 85.2082 29.151 85.2082 20.5862ZM113.967 8.20404H125.518C130.926 8.20404 133.646 11.7666 133.646 15.7218C133.682 17.2231 133.239 18.6962 132.38 19.9219C131.522 21.1476 130.295 22.0606 128.882 22.5248L134.594 32.9861H129.162L123.911 23.2608H118.836V32.9861H113.967V8.20404ZM125.168 19.2843C127.433 19.2843 128.773 17.7737 128.773 15.8385C128.773 13.9034 127.412 12.3821 125.161 12.3821H118.836V19.2665L125.168 19.2843ZM152.505 8.20404H161.256L169.416 32.9861H164.386L162.355 26.8269H151.273L149.239 32.9861H144.339L152.505 8.20404ZM160.94 22.5814L157.791 13.0472H155.796L152.645 22.5992L160.94 22.5814ZM176.228 12.6192H168.551V8.18636H188.719V12.6015H181.089V32.9861H176.22L176.228 12.6192ZM193.029 8.20404H197.901V28.5709H210.247V32.9861H193.008L193.029 8.20404ZM214.52 8.20404H232.505V12.3821H219.33V18.2229H231.525V22.3304H219.33V28.8009H232.673V32.9861H214.5L214.52 8.20404ZM236.145 20.6038C236.145 12.8527 241.284 7.62031 248.838 7.62031C256.314 7.62031 261.491 12.8527 261.491 20.6038C261.491 28.3551 256.314 33.5874 248.838 33.5874C241.264 33.5698 236.125 28.3375 236.125 20.5862L236.145 20.6038ZM247.535 29.0521H250.181C253.784 29.0521 256.506 25.3304 256.506 20.6038C256.506 15.8775 253.773 12.138 250.161 12.138H247.514C243.87 12.138 241.108 15.934 241.108 20.5862C241.108 25.2384 243.87 29.0343 247.514 29.0343L247.535 29.0521ZM264.782 25.3692H269.767C270.035 27.5414 271.338 29.1688 273.675 29.1688H276.826C278.971 29.1688 280.2 27.8492 280.2 26.0662C280.2 24.4387 279.125 23.2784 277.324 23.0838L272.107 22.5037C267.663 21.9977 265.437 19.3196 265.437 15.3326C265.437 10.4894 269.003 7.62031 274.887 7.62031C281.023 7.62031 284.282 10.3727 284.513 15.7995H279.525C279.371 13.8821 278.18 12.0284 275.959 12.0284H273.35C271.471 12.0284 270.2 13.1534 270.2 14.9753C270.2 16.7973 271.541 17.8799 273.228 18.0743L278.443 18.6546C282.623 19.1216 285 21.4847 285 25.7866C285 30.6688 281.626 33.5698 274.915 33.5698C268.205 33.5698 264.877 30.7785 264.761 25.3515L264.782 25.3692ZM20.3684 0C14.9663 0 9.78559 2.16889 5.96575 6.02956C2.14595 9.8902 0 15.1264 0 20.5862C0 26.046 2.14595 31.2822 5.96575 35.1429C9.78559 39.0034 14.9663 41.1724 20.3684 41.1724C25.7704 41.1724 30.9512 39.0034 34.7709 35.1429C38.5909 31.2822 40.7365 26.046 40.7365 20.5862C40.7365 15.1264 38.5909 9.8902 34.7709 6.02956C30.9512 2.16889 25.7704 0 20.3684 0ZM20.3684 39.4778C17.9427 39.4778 15.7164 37.8116 13.9908 35.0522C14.2288 34.9707 14.4598 34.8858 14.6909 34.801C18.9405 33.1477 22.88 30.774 26.34 27.782C27.6634 26.6626 28.9198 25.4647 30.1028 24.1948C29.2277 32.9011 25.2023 39.4778 20.3684 39.4778ZM6.09758 32.7561C6.07657 32.7278 6.05207 32.703 6.02757 32.6748C4.87947 31.1288 7.30169 26.9436 8.96434 24.4671C9.23274 27.2836 9.89262 30.048 10.9245 32.6783C8.88383 33.3256 6.90265 33.6087 6.09758 32.7666V32.7561ZM20.3684 1.69459C22.7941 1.69459 25.0203 3.36087 26.7459 6.1203C26.5079 6.20167 26.2734 6.28657 26.0459 6.37149C21.7962 8.02472 17.8567 10.3984 14.3968 13.3904C13.0689 14.5098 11.8089 15.7089 10.6235 16.9812C11.5091 8.28187 15.5414 1.69459 20.3684 1.69459ZM34.6531 8.40569L34.7197 8.48353C35.8712 10.0331 33.4492 14.2182 31.7865 16.6947C31.5129 13.8798 30.8482 11.118 29.8122 8.49059C31.8529 7.84673 33.8341 7.55309 34.6531 8.40569ZM13.6513 18.8456C15.7515 18.7643 18.0056 18.7218 20.3788 18.7218C23.9352 18.7218 27.2604 18.8209 30.0887 18.9906C29.1577 20.1404 28.1601 21.2549 27.1065 22.3268C25.0063 22.4046 22.752 22.4506 20.3788 22.4506C16.8226 22.4506 13.4973 22.3515 10.669 22.1782C11.5896 21.032 12.6012 19.9176 13.6513 18.8456ZM30.1447 17.2996C27.2221 17.1192 23.8651 17.0272 20.3684 17.0272C18.6882 17.0272 17.0431 17.0485 15.468 17.0908C15.846 16.7442 16.2299 16.4023 16.6196 16.065C18.9832 14.0798 21.5316 12.3311 24.2292 10.8432C25.5237 10.1643 26.8561 9.56194 28.2196 9.03895C29.2582 11.6824 29.9067 14.4657 30.1447 17.2996ZM6.73113 21.8599C3.60185 21.5272 1.68365 21.0779 1.68365 20.5862C1.68365 19.9955 4.44892 19.4682 8.75431 19.1251C8.05075 20.0131 7.3507 20.9257 6.73113 21.8599ZM2.76876 22.9636C3.74446 23.1781 4.73053 23.3411 5.72304 23.4517L5.53052 23.7701C4.66945 25.2525 3.82238 27.0037 3.53534 28.7902C2.61173 26.8706 2.0198 24.8055 1.78516 22.684C2.10758 22.7959 2.43595 22.8892 2.76876 22.9636ZM10.592 23.8727C13.5148 24.0497 16.8716 24.1452 20.3684 24.1452C22.0485 24.1452 23.6937 24.1239 25.2689 24.0814C24.8907 24.4282 24.5057 24.7703 24.1138 25.1074C21.751 27.0911 19.2037 28.8386 16.5075 30.3256C15.214 31.0077 13.8816 31.6113 12.5172 32.1334C11.4774 29.4904 10.8287 26.707 10.592 23.8727ZM34.0057 19.3126C37.1348 19.6452 39.0529 20.0944 39.0529 20.5862C39.0529 21.1769 36.2877 21.7042 31.9824 22.0473C32.6999 21.1593 33.3791 20.2465 34.0057 19.3126ZM37.9679 18.2088C36.9891 17.9926 35.9993 17.8295 35.0031 17.7207L35.1956 17.4021C36.0567 15.9199 36.9038 14.1687 37.1908 12.3786C38.1145 14.2996 38.706 16.3659 38.941 18.4882C38.6221 18.377 38.2972 18.2837 37.9679 18.2088ZM31.2719 5.25708C30.3066 5.25338 29.3446 5.37225 28.4086 5.61087C27.7709 4.51027 26.9956 3.4972 26.102 2.59671C27.9519 3.2054 29.6964 4.10307 31.2719 5.25708ZM14.6349 2.60732C11.5896 5.61794 9.42988 10.967 8.89083 17.4129C8.22928 17.466 7.59221 17.519 6.99016 17.5791C5.57175 17.7029 4.16203 17.9132 2.76876 18.2088C2.4395 18.2837 2.11464 18.377 1.79566 18.4882C2.20104 14.8747 3.62736 11.4554 5.90415 8.63922C8.18097 5.82299 11.2119 3.72896 14.6349 2.60732ZM9.45088 35.9153C10.4149 35.917 11.3755 35.7982 12.3107 35.5616C12.9508 36.6615 13.7271 37.6743 14.6209 38.5757C12.7707 37.9669 11.0263 37.0693 9.45088 35.9153ZM26.102 38.5616C29.1472 35.5509 31.3068 30.1841 31.8424 23.7525C32.5074 23.7029 33.1446 23.6463 33.7466 23.5898C35.1651 23.4657 36.5747 23.2555 37.9679 22.9601C38.2972 22.8852 38.6221 22.7919 38.941 22.6805C38.5355 26.2942 37.1096 29.7134 34.8326 32.5297C32.5558 35.3457 29.5249 37.4398 26.102 38.5616Z" fill="white"/>
</svg>
